<?xml version="1.0" encoding="UTF-8"?><svg id="Camada_1" xmlns="http://www.w3.org/2000/svg" viewBox="0 0 1080 1080"><defs><style>.cls-1{fill:#010101;}</style></defs><path class="cls-1" d="M515.03,359.97l.64-.49-4.55,3.52c16.76-12.89,35.09-23.61,54.55-31.88l-5.37,2.27c20.45-8.62,41.97-14.46,63.96-17.42l-5.98,.8c22.17-2.91,44.66-2.91,66.83,.02l-5.98-.8c21.93,2.96,43.4,8.79,63.81,17.36l-5.37-2.27c19.92,8.43,38.67,19.4,55.8,32.6l-4.55-3.52c16.98,13.16,32.24,28.42,45.39,45.41l-3.52-4.55c13.19,17.13,24.15,35.89,32.57,55.8l-2.27-5.37c8.56,20.4,14.39,41.85,17.34,63.77l-.8-5.98c2.92,22.16,2.92,44.64,0,66.8l.8-5.98c-2.97,22.12-8.87,43.76-17.55,64.32l2.27-5.37c-8.44,19.86-19.42,38.57-32.61,55.65l3.52-4.55c-13.02,16.76-28.09,31.84-44.85,44.85l4.55-3.52c-17.25,13.33-36.17,24.39-56.26,32.87l5.37-2.27c-20.38,8.54-41.81,14.34-63.71,17.29l5.98-.8c-22.26,2.93-44.84,2.91-67.1-.04l5.98,.8c-21.94-2.98-43.4-8.82-63.81-17.41l5.37,2.27c-17.4-7.39-33.9-16.71-49.22-27.8-4.46-3.23-12.25-3.67-17.34-2.27s-10.88,5.47-13.45,10.34c-2.76,5.22-4.14,11.55-2.27,17.34l2.27,5.37c2,3.38,4.69,6.07,8.07,8.07,18.53,13.41,38.71,23.85,59.96,32.26,21.83,8.64,44.56,13.66,67.82,16.45,19.76,2.38,39.82,2.42,59.59,.12,19.15-2.23,38-5.89,56.3-12.01,35.51-11.88,68-30.73,96.06-55.49,26.35-23.25,48.43-52.25,63.68-83.92,16.72-34.74,26.2-72.23,27.58-110.8,1.32-36.78-4.92-74.45-18.67-108.62-6.97-17.32-15.17-34.01-25.46-49.61s-21.92-30.12-34.97-43.28-27.46-24.82-42.74-35.1c-15.61-10.51-32.3-18.84-49.68-26.01-34.55-14.24-72.74-20.73-110.06-19.46-45.94,1.56-91.4,14.53-130.86,38.23-10.12,6.08-19.59,12.99-28.91,20.21-4.22,3.27-6.59,10.86-6.59,15.91,0,5.52,2.45,12.11,6.59,15.91s9.92,6.86,15.91,6.59l5.98-.8c3.81-1.07,7.12-3,9.93-5.79h0Z"/><path class="cls-1" d="M377.81,542.64c.02,16.18,1.64,32.31,4.34,48.25,2.32,13.68,5.78,27.16,10.35,40.26,3.11,8.91,6.88,17.53,10.59,26.19l-2.27-5.37c1.31,3.15,2.2,6.42,2.68,9.79l-.8-5.98c.44,3.42,.44,6.85,0,10.27l.8-5.98c-.47,3.37-1.36,6.64-2.65,9.78l2.27-5.37c-1.32,3.13-3.02,6.06-5.08,8.76l3.52-4.55c-2.03,2.6-4.34,4.92-6.95,6.94l4.55-3.52c-2.59,1.96-5.39,3.59-8.38,4.86l5.37-2.27c-11.94,4.93-24.85,7.96-37.62,9.69l5.98-.8c-14.78,1.95-29.74,1.89-44.51-.09l5.98,.8c-14.12-1.94-27.9-5.65-41.05-11.16l5.37,2.27c-13.09-5.53-25.4-12.74-36.66-21.41l4.55,3.52c-11.29-8.74-21.43-18.89-30.17-30.18l3.52,4.55c-8.74-11.35-16.02-23.77-21.6-36.97l2.27,5.37c-5.57-13.27-9.39-27.22-11.32-41.48l.8,5.98c-1.93-14.66-1.94-29.55,0-44.22l-.8,5.98c1.95-14.44,5.81-28.57,11.47-42l-2.27,5.37c5.51-12.98,12.67-25.21,21.26-36.39l-3.52,4.55c8.66-11.2,18.71-21.26,29.9-29.93l-4.55,3.52c11.28-8.7,23.64-15.93,36.76-21.48l-5.37,2.27c13.44-5.65,27.58-9.49,42.02-11.44l-5.98,.8c14.58-1.93,29.36-1.93,43.94,0l-5.98-.8c12.64,1.72,25.55,4.65,37.34,9.62l-5.37-2.27c2.99,1.3,5.8,2.94,8.4,4.92l-4.55-3.52c2.61,2.03,4.95,4.36,6.99,6.96l-3.52-4.55c2.07,2.7,3.79,5.63,5.13,8.77l-2.27-5.37c1.31,3.14,2.21,6.41,2.69,9.78l-.8-5.98c.45,3.42,.47,6.85,.03,10.27l.8-5.98c-.47,3.39-1.37,6.67-2.68,9.82l2.27-5.37c-6.13,14.28-11.9,28.49-15.94,43.53-4.1,15.26-6.64,30.94-8.15,46.66-.78,8.09-1.15,16.21-1.16,24.33,0,5.76,2.51,11.83,6.59,15.91s10.31,6.84,15.91,6.59,11.85-2.17,15.91-6.59,6.58-9.81,6.59-15.91c.01-11.19,.74-22.37,2.21-33.47l-.8,5.98c2.94-21.87,8.76-43.28,17.32-63.62l-2.27,5.37c2.09-4.92,4.55-9.73,6.16-14.83,1.45-4.61,2.06-9.58,2.45-14.36s-.33-9.55-1.04-14.31c-.44-2.94-1.15-5.82-2.22-8.6-1.64-4.28-3.41-8.66-5.9-12.54s-5.52-7.84-8.89-11.17-7.2-6.27-11.19-8.77c-4.19-2.62-8.89-4.45-13.51-6.15-17.11-6.27-35.37-9.57-53.53-10.55-14.99-.81-30.05,.56-44.8,3.27-11.72,2.15-23.16,5.59-34.14,10.2-12.64,5.3-24.73,11.32-35.98,19.22s-21.32,16.26-30.45,26.03-17.35,20.53-24.25,31.95-12.72,24.32-17.12,37.21-7,26.8-8.55,40.63c-1.4,12.5-1.37,25.17,.06,37.67,1.65,14.49,4.39,28.68,9.35,42.42,9.68,26.82,24.85,51.34,45.13,71.47s44.85,35.18,71.76,44.53c15.02,5.22,30.82,8,46.65,9.27,18,1.44,36.29-.13,53.92-3.91,7.69-1.65,15.26-3.85,22.64-6.59,4.65-1.73,9.4-3.57,13.6-6.28,3.94-2.54,7.78-5.48,11.06-8.84,6.76-6.92,11.34-14.97,14.55-24.04,1.58-4.47,2.1-9.11,2.69-13.79,.37-2.98,.45-5.98,.15-8.97-.47-4.72-1.04-9.58-2.53-14.12-1.62-4.94-4-9.62-6.02-14.4l2.27,5.37c-8.58-20.38-14.4-41.84-17.35-63.76l.8,5.98c-1.47-11.11-2.2-22.3-2.21-33.51,0-5.77-2.51-11.82-6.59-15.91s-10.31-6.84-15.91-6.59-11.85,2.17-15.91,6.59-6.6,9.82-6.59,15.91Z"/><path class="cls-1" d="M331.12,817.14l23-25.35,53.97-59.49,63.27-69.74,51.09-56.32,13.87-15.29c.98-1.08,1.97-2.17,2.95-3.25,7.06-7.82,12.02-16.1,15.57-26,4.89-13.62,4.86-30.46-.22-44.03-3.63-9.68-8.37-17.64-15.31-25.35-2.89-3.21-5.8-6.42-8.69-9.63l-44.58-49.35-62.06-68.7-58.04-64.25-32.39-35.86-1.51-1.67c-3.75-4.15-10.44-6.59-15.91-6.59s-12.11,2.45-15.91,6.59c-8.59,9.36-8.44,22.48,0,31.82l20.92,23.16,50.14,55.51,60.09,66.52,51.87,57.42c8.12,8.99,16.27,17.96,24.37,26.98,.95,1.06,1.86,2.15,2.74,3.27l-3.52-4.55c2.32,3.09,4.25,6.38,5.81,9.91l-2.27-5.37c1.65,3.92,2.78,7.99,3.38,12.21l-.8-5.98c.53,4.19,.53,8.37-.01,12.56l.8-5.98c-.58,3.96-1.61,7.79-3.12,11.5l2.27-5.37c-1.61,3.79-3.65,7.31-6.13,10.59l3.52-4.55c-2.36,3.02-5.05,5.8-7.62,8.64l-14.78,16.29-49.69,54.77-60.57,66.77-52.51,57.88c-8.49,9.36-17.06,18.64-25.47,28.07-.12,.13-.24,.26-.36,.4-4,4.41-6.59,9.85-6.59,15.91,0,5.52,2.45,12.11,6.59,15.91s9.92,6.86,15.91,6.59,11.89-2.16,15.91-6.59h0Z"/></svg>